PathFileType	4	(X/Y/Z)	8_coords_data.trc
DataRate	CameraRate	NumFrames	NumMarkers	Units	OrigDataRate	OrigDataStartFrame	OrigNumFrames
30.0	30.0	4	21	m	30.0	1	59
Frame#	Time	THUMB_TIP	THUMB_IP	THUMB_MCP	THUMB_CMC	INDEX_TIP	INDEX_DIP	INDEX_PIP	INDEX_MCP	MIDDLE_TIP	MIDDLE_DIP	MIDDLE_PIP	MIDDLE_MCP	RING_TIP	RING_DIP	RING_PIP	RING_MCP	PINKY_TIP	PINKY_DIP	PINKY_PIP	PINKY_MCP	WRIST
X1	Y1	Z1	X2	Y2	Z2	X3	Y3	Z3	X4	Y4	Z4	X5	Y5	Z5	X6	Y6	Z6	X7	Y7	Z7	X8	Y8	Z8	X9	Y9	Z9	X10	Y10	Z10	X11	Y11	Z11	X12	Y12	Z12	X13	Y13	Z13	X14	Y14	Z14	X15	Y15	Z15	X16	Y16	Z16	X17	Y17	Z17	X18	Y18	Z18	X19	Y19	Z19	X20	Y20	Z20	X21	Y21	Z21
0	0.0	-0.008628780364990235	0.001404229998588562	0.9476279907226562	-0.022782100677490234	-0.008875309944152832	0.9698040161132813	-0.04187379837036133	-0.01834320068359375	0.992447021484375	-0.06201890182495117	0.0016655499935150143	0.9982169799804688	-0.05551369857788086	-0.06875460052490234	0.881801025390625	-0.055044601440429684	-0.059092899322509766	0.900926025390625	-0.0587682991027832	-0.050771800994873044	0.9203729858398437	-0.06553399658203125	-0.03102199935913086	0.95439599609375	-0.044202701568603515	-0.015802900314331056	0.966198974609375	-0.02659980010986328	-0.013117199897766113	0.95435400390625	-0.03429090118408203	-0.013831199645996094	0.9316380004882813	-0.07467209625244141	-0.012120499610900878	0.9477139892578125	-0.03537730026245117	-0.0008011389970779411	0.9734990234375	-0.027534400939941406	0.002372230052947998	0.95427099609375	-0.036769798278808594	0.0056932601928710936	0.932844970703125	-0.070818603515625	0.009209110260009765	0.9473170166015625	-0.04841910171508789	0.03992399978637695	0.8935880126953125	-0.053038700103759766	0.03478839874267578	0.9139849853515625	-0.057322200775146485	0.029088199615478514	0.9290280151367187	-0.06275400161743164	0.02126110076904297	0.9553380126953125	-0.08868340301513672	0.01576039981842041	1.0166699829101562
1	0.03333333333333333	-0.010269399642944335	0.001397429943084716	0.9482659912109375	-0.02232259941101074	-0.008705739974975585	0.96827001953125	-0.040960700988769534	-0.017676700592041017	0.9903579711914062	-0.05920869827270508	-0.0014676500558853149	1.003239990234375	-0.05635210037231445	-0.06731719970703125	0.8817860107421875	-0.0560531005859375	-0.05861309814453125	0.9017659912109375	-0.06001679992675781	-0.04948440170288086	0.9207050170898438	-0.06656390380859376	-0.03123270034790039	0.9537650146484375	-0.04333660125732422	-0.013929800033569336	0.9689439697265625	-0.029274599075317383	-0.013102999687194824	0.9562249755859376	-0.034994701385498046	-0.015070099830627442	0.9319229736328125	-0.07390540313720703	-0.012423500061035157	0.9450640258789063	-0.035041099548339845	0.000611488997936248	0.97310498046875	-0.027592199325561523	0.002613100051879883	0.9546619873046875	-0.03621110153198242	0.005702909946441651	0.9320059814453125	-0.07123349761962891	0.007875030040740966	0.9473170166015625	-0.049775100708007815	0.040005001068115234	0.8942559814453125	-0.0529213981628418	0.03442179870605469	0.913333984375	-0.05679470062255859	0.02932819938659668	0.9293499755859375	-0.0610791015625	0.021709999084472655	0.9544349975585937	-0.08883039855957031	0.014677000045776368	1.0188300170898437
2	0.06666666666666667	-0.010743100166320801	0.001514999985694885	0.9481259765625	-0.0227101993560791	-0.008829130172729491	0.9682780151367187	-0.04134310150146484	-0.01767919921875	0.990281982421875	-0.05970769882202148	-0.0014414099454879762	1.003219970703125	-0.056548301696777346	-0.06733200073242188	0.8818189697265625	-0.05637969970703125	-0.058594799041748045	0.9017589721679687	-0.06037210083007812	-0.049462799072265626	0.9206710205078125	-0.06693650054931641	-0.031221200942993164	0.953760009765625	-0.04371120071411133	-0.013869199752807617	0.9693330078125	-0.02968989944458008	-0.013031100273132324	0.9561920166015625	-0.03534659957885742	-0.014956100463867188	0.93181298828125	-0.07429329681396485	-0.012437399864196777	0.9450250244140626	-0.03558549880981445	0.00037373799085617	0.9726019897460938	-0.027921699523925782	0.002686389923095703	0.9544190063476562	-0.03660020065307617	0.005757689952850342	0.9317849731445312	-0.07160060119628907	0.007898980140686036	0.94725	-0.05012400054931641	0.04007590103149414	0.89427001953125	-0.05333420181274414	0.034464099884033206	0.9133049926757812	-0.05723149871826172	0.029353099822998045	0.9293289794921875	-0.06149489974975586	0.02173240089416504	0.9544039916992187	-0.08937349700927734	0.01465820026397705	1.0189500122070312
3	0.1	-0.011210000038146973	0.001462620019912719	0.9481229858398438	-0.023072599411010742	-0.008830430030822754	0.968031982421875	-0.041782600402832035	-0.017641399383544924	0.9900560302734375	-0.06034429931640625	-0.001447510004043579	1.0032000122070313	-0.056721298217773435	-0.0675364990234375	0.8817789916992187	-0.05654719924926758	-0.058775699615478516	0.9017239990234375	-0.06064739990234375	-0.049599601745605466	0.92060400390625	-0.06733820343017578	-0.031268100738525394	0.953583984375	-0.0443927001953125	-0.01391759967803955	0.9692139892578125	-0.03007900047302246	-0.013009599685668945	0.9561740112304687	-0.035788898468017576	-0.014954000473022462	0.93177197265625	-0.07475150299072265	-0.012471799850463866	0.9448930053710938	-0.03598189926147461	0.00042121198773384003	0.9727689819335937	-0.028531700134277343	0.0026608800888061517	0.9546240234375	-0.03703099822998047	0.005778540134429932	0.931885009765625	-0.07208560180664063	0.00787805986404419	0.9471320190429687	-0.05046609878540039	0.04016410064697266	0.894291015625	-0.053713401794433596	0.03451919937133789	0.9133259887695313	-0.05766490173339844	0.029377099990844726	0.929280029296875	-0.061941299438476566	0.021689599990844726	0.95435498046875	-0.08989199829101563	0.014525099754333496	1.018739990234375
